<mxfile host="app.diagrams.net" modified="2020-08-06T18:19:20.827Z" agent="5.0 (Windows NT 10.0; Win64; x64) AppleWebKit/537.36 (KHTML, like Gecko) Chrome/84.0.4147.105 Safari/537.36" etag="N0X2h9ptJKV-5jgC0rC2" version="13.6.0" type="github">
  <diagram id="_jNnA2Sq-86PQmk2YWx3" name="Page-1">
    <mxGraphModel dx="1422" dy="794" grid="1" gridSize="10" guides="1" tooltips="1" connect="1" arrows="1" fold="1" page="1" pageScale="1" pageWidth="1920" pageHeight="1200" math="0" shadow="0">
      <root>
        <mxCell id="0" />
        <mxCell id="1" parent="0" />
        <mxCell id="e13XUv83c3_pTAxPGvuk-6" style="edgeStyle=orthogonalEdgeStyle;rounded=0;orthogonalLoop=1;jettySize=auto;html=1;exitX=0.5;exitY=1;exitDx=0;exitDy=0;entryX=0.5;entryY=1;entryDx=0;entryDy=0;" edge="1" parent="1" source="e13XUv83c3_pTAxPGvuk-1" target="e13XUv83c3_pTAxPGvuk-5">
          <mxGeometry relative="1" as="geometry" />
        </mxCell>
        <mxCell id="e13XUv83c3_pTAxPGvuk-1" value="Increasing heat" style="rounded=1;whiteSpace=wrap;html=1;" vertex="1" parent="1">
          <mxGeometry x="440" y="300" width="120" height="60" as="geometry" />
        </mxCell>
        <mxCell id="e13XUv83c3_pTAxPGvuk-2" value="" style="endArrow=classic;html=1;entryX=0;entryY=0.5;entryDx=0;entryDy=0;" edge="1" parent="1" target="e13XUv83c3_pTAxPGvuk-1">
          <mxGeometry width="50" height="50" relative="1" as="geometry">
            <mxPoint x="180" y="190" as="sourcePoint" />
            <mxPoint x="340" y="260" as="targetPoint" />
          </mxGeometry>
        </mxCell>
        <mxCell id="e13XUv83c3_pTAxPGvuk-3" value="Reset" style="text;html=1;align=center;verticalAlign=middle;resizable=0;points=[];autosize=1;" vertex="1" parent="1">
          <mxGeometry x="240" y="180" width="50" height="20" as="geometry" />
        </mxCell>
        <mxCell id="e13XUv83c3_pTAxPGvuk-4" value="temp = 300, heat = on" style="text;html=1;align=center;verticalAlign=middle;resizable=0;points=[];autosize=1;" vertex="1" parent="1">
          <mxGeometry x="280" y="220" width="130" height="20" as="geometry" />
        </mxCell>
        <mxCell id="e13XUv83c3_pTAxPGvuk-8" style="edgeStyle=orthogonalEdgeStyle;rounded=0;orthogonalLoop=1;jettySize=auto;html=1;exitX=0.5;exitY=0;exitDx=0;exitDy=0;entryX=0.5;entryY=0;entryDx=0;entryDy=0;" edge="1" parent="1" source="e13XUv83c3_pTAxPGvuk-5" target="e13XUv83c3_pTAxPGvuk-1">
          <mxGeometry relative="1" as="geometry" />
        </mxCell>
        <mxCell id="e13XUv83c3_pTAxPGvuk-5" value="Decreasing heat" style="rounded=1;whiteSpace=wrap;html=1;" vertex="1" parent="1">
          <mxGeometry x="750" y="300" width="120" height="60" as="geometry" />
        </mxCell>
        <mxCell id="e13XUv83c3_pTAxPGvuk-7" value="temp &amp;gt; temp limit + 10" style="text;html=1;align=center;verticalAlign=middle;resizable=0;points=[];autosize=1;" vertex="1" parent="1">
          <mxGeometry x="595" y="410" width="130" height="20" as="geometry" />
        </mxCell>
        <mxCell id="e13XUv83c3_pTAxPGvuk-9" value="temp &amp;lt; temp_limit - 10" style="text;html=1;align=center;verticalAlign=middle;resizable=0;points=[];autosize=1;" vertex="1" parent="1">
          <mxGeometry x="610" y="250" width="130" height="20" as="geometry" />
        </mxCell>
      </root>
    </mxGraphModel>
  </diagram>
</mxfile>
